#N canvas -133 -913 901 571 12;
#X obj 126 135 netreceive -u -b;
#X obj 126 159 oscparse;
#X obj 126 183 print;
#X msg 126 111 listen 8888;
#X floatatom 622 96 5 0 1e+06 0 - - - 0;
#X obj 623 124 oscformat /rate;
#X obj 623 172 list trim;
#X obj 493 334 netsend -u -b;
#X obj 623 148 list prepend send;
#X msg 622 290 disconnect;
#X floatatom 470 100 5 0 0 0 - - - 0;
#X obj 470 171 list trim;
#X obj 470 147 list prepend send;
#X obj 325 169 list trim;
#X obj 325 145 list prepend send;
#X obj 325 121 oscformat /index;
#X obj 470 123 oscformat /step;
#X msg 600 250 connect localhost 7777;
#X floatatom 324 76 5 0 0 0 - - - 0;
#X connect 0 0 1 0;
#X connect 1 0 2 0;
#X connect 3 0 0 0;
#X connect 4 0 5 0;
#X connect 5 0 8 0;
#X connect 6 0 7 0;
#X connect 8 0 6 0;
#X connect 9 0 7 0;
#X connect 10 0 16 0;
#X connect 11 0 7 0;
#X connect 12 0 11 0;
#X connect 13 0 7 0;
#X connect 14 0 13 0;
#X connect 15 0 14 0;
#X connect 16 0 12 0;
#X connect 17 0 7 0;
#X connect 18 0 15 0;
